<!-- Generated by IcoMoon.io -->
<svg version="1.1" xmlns="http://www.w3.org/2000/svg" width="2717" height="512" viewBox="0 0 2717 512">
<title></title>
<g id="icomoon-ignore">
</g>
<path fill="#000" d="M1113.577 455.258h36.786v9.197h-47.005v-77.659h10.218v68.463z"></path>
<path fill="#000" d="M1164.668 425.625c0-22.481 15.328-38.829 37.808-38.829s37.808 17.371 37.808 38.829-14.305 39.851-37.808 39.851-37.808-17.371-37.808-39.851zM1231.088 425.625c0-16.349-10.218-29.633-27.59-29.633-18.393 0-27.59 13.284-27.59 29.633 0 17.371 10.218 30.655 27.59 30.655s27.59-12.262 27.59-30.655z"></path>
<path fill="#000" d="M1334.293 464.454h-11.24l-44.961-60.288v60.288h-10.218v-77.659h10.218l45.983 62.332v-62.332h10.218v77.659z"></path>
<path fill="#000" d="M1364.948 464.454v-77.659h26.568c21.458 0 37.808 15.327 37.808 38.829 0 24.524-15.328 38.829-37.808 38.829h-26.568zM1375.167 397.014v58.245h17.371c17.371 0 26.568-9.197 26.568-28.611 0-18.393-11.24-28.611-26.568-28.611l-17.371-1.022z"></path>
<path fill="#000" d="M1450.783 425.625c0-22.481 15.328-38.829 37.808-38.829s37.808 17.371 37.808 38.829-14.305 39.851-37.808 39.851-37.808-17.371-37.808-39.851zM1518.224 425.625c0-16.349-10.218-29.633-27.59-29.633-18.393 0-27.59 13.284-27.59 29.633 0 17.371 10.218 30.655 27.59 30.655s27.59-12.262 27.59-30.655z"></path>
<path fill="#000" d="M1620.407 464.454h-11.24l-44.961-60.288v60.288h-10.218v-77.659h10.218l45.983 62.332v-62.332h10.218v77.659z"></path>
<path fill="#000" d="M191.881 4.628v209.476h-19.415v-170.647l-69.485 133.861h-13.284l-67.441-133.861v170.647h-19.415v-209.476h19.415l75.616 144.079 75.616-144.079c-1.022 0 18.393 0 18.393 0z"></path>
<path fill="#000" d="M386.030 157.904h-107.293l-21.459 56.201h-20.436l82.768-209.476h26.567l82.769 209.476h-21.459l-21.459-56.201zM285.89 140.532h94.009l-47.005-118.533-47.005 118.533z"></path>
<path fill="#000" d="M614.922 62.873c0 34.742-24.524 56.201-56.201 60.288l69.485 89.921h-23.502l-69.485-89.921h-44.961v89.921h-20.437v-208.454h71.529c49.048 0 73.572 21.459 73.572 58.245zM492.301 23.021v83.79h56.201c32.698 0 48.026-19.415 48.026-43.939 0-19.415-10.218-38.83-50.070-38.83l-54.158-1.022z"></path>
<path fill="#000" d="M734.476 97.615l96.053 117.511h-24.524l-85.834-103.206-27.59 28.612v73.572h-19.415v-209.476h19.415v110.358l105.249-110.358h24.524l-87.878 92.987z"></path>
<path fill="#000" d="M991.979 49.59l-17.371 6.131c-7.153-21.459-26.567-35.764-52.114-35.764-28.611 0-47.005 14.306-47.005 37.808 0 52.114 119.554 24.524 119.554 98.096 0 34.743-29.633 60.288-69.485 60.288-37.808 0-65.398-15.327-80.725-47.005l16.35-10.219c9.197 19.415 25.546 38.829 65.398 38.829 31.677 0 51.092-17.371 51.092-41.895 0-53.136-120.577-26.567-120.577-98.096 0-41.895 37.808-56.201 65.398-56.201 31.677 1.022 59.266 14.306 69.485 48.026z"></path>
<path fill="#000" d="M1239.263 217.171l-34.743-36.786c-13.284 19.415-31.677 33.721-58.245 33.721-35.764 0-62.332-24.524-62.332-56.201 0-25.546 15.328-40.874 45.983-58.245-17.371-17.371-26.568-31.677-26.568-48.026 0-24.524 20.437-43.939 45.983-43.939 26.568 0 47.005 19.415 47.005 43.939 0 23.502-18.393 39.852-37.808 52.114l42.917 47.005 25.546-40.874 15.328 9.197-27.59 44.961 37.808 40.874-13.284 12.262zM1142.188 111.921c-26.568 15.328-38.83 26.568-38.83 44.961 0 21.459 19.415 38.829 42.917 38.829 21.458 0 33.72-11.24 44.961-30.655l-49.048-53.136zM1121.752 49.59c0 11.24 8.175 21.459 24.524 39.852 19.415-11.24 30.655-23.502 30.655-39.852 0-15.328-10.218-27.59-28.611-27.59-15.328 0-26.568 13.284-26.568 27.59z"></path>
<path fill="#000" d="M1477.35 49.59l-17.371 6.131c-7.153-21.459-26.568-35.764-52.113-35.764-28.611 0-47.005 14.306-47.005 37.808 0 52.114 119.554 24.524 119.554 98.096 0 34.743-29.633 60.288-69.485 60.288-37.808 0-65.398-15.327-80.725-47.005l16.35-10.219c9.197 19.415 25.546 38.829 65.398 38.829 31.677 0 51.092-17.371 51.092-41.895 0-53.136-120.576-26.567-120.576-98.096 0-41.895 37.808-56.201 65.398-56.201 30.655 1.022 58.245 14.306 69.485 48.026z"></path>
<path fill="#000" d="M1683.761 64.917c0 39.852-30.655 62.332-67.441 62.332h-56.201v85.834h-19.415v-208.454h71.528c44.961 0 71.528 23.502 71.528 60.288zM1560.119 23.021v87.878h56.201c32.698 0 48.026-21.459 48.026-44.961 0-19.415-10.218-40.873-50.070-40.873l-54.158-2.044z"></path>
<path fill="#000" d="M1725.656 4.628h127.729v18.393h-108.314v74.594h100.14v18.393h-100.14v79.703h113.424v18.393h-132.839v-209.476z"></path>
<path fill="#000" d="M2089.43 214.105h-21.459l-131.816-175.756v175.756h-19.415v-209.476h19.415l133.861 179.843v-179.843h19.415v209.476z"></path>
<path fill="#000" d="M2305.037 49.59c-15.327-18.393-33.72-29.633-62.332-29.633-49.048 0-84.813 37.808-84.813 88.9s34.742 88.9 84.813 88.9c34.742 0 49.048-12.262 65.398-30.655l12.262 12.262c-15.327 18.393-36.786 35.764-78.682 35.764-56.201 0-103.206-42.917-103.206-107.293 0-63.354 47.005-107.293 103.206-107.293 34.742 0 62.332 17.371 75.616 34.742l-12.262 14.306z"></path>
<path fill="#000" d="M2372.478 4.628h127.729v18.393h-108.314v74.594h100.14v18.393h-100.14v79.703h113.423v18.393h-132.838v-209.476z"></path>
<path fill="#000" d="M2706.618 62.873c0 34.742-24.524 56.201-56.201 60.288l69.485 89.921h-22.481l-69.485-89.921h-45.983v89.921h-19.415v-208.454h71.528c47.005 0 72.55 21.459 72.55 58.245zM2582.976 23.021v83.79h56.201c32.698 0 48.026-19.415 48.026-43.939 0-19.415-10.218-38.83-50.070-38.83l-54.157-1.022z"></path>
</svg>
